{"title":"Rio 2 2014 BRRip 480p x264 Quad Audio [Hindi-Tamil-Telugu-Eng] Y","uid":10486524,"size":515587525,"categoryP":"video","categoryS":"movies","magnet":"?xt=urn:btih:c7d8a886c0d9c313254f0068dd6541efed8c3c38&amp;dn=Rio+2+2014+BRRip+480p+x264+Quad+Audio+%5BHindi-Tamil-Telugu-Eng%5D+Y&amp;tr=udp%3A%2F%2Ftracker.openbittorrent.com%3A80&amp;tr=udp%3A%2F%2Fopen.demonii.com%3A1337&amp;tr=udp%3A%2F%2Ftracker.coppersurfer.tk%3A6969&amp;tr=udp%3A%2F%2Fexodus.desync.com%3A6969","seeders":1,"leechers":0,"uploader":"Dj_YsB","files":8,"time":1404480241,"description":" &lt;a href=&quot;http://i.imgur.com/irm0elv.jpg&quot; rel=&quot;nofollow&quot; target=&quot;_NEW&quot;&gt;http://i.imgur.com/irm0elv.jpg&lt;/a&gt;\n\nGeneral\nComplete name                            : Rio 2 2014 Blu-Ray 480p x264 Quad Audio [Hindi-Tamil-Telugu-Eng] YsB TeaM SSX.mkv\nFormat                                   : Matroska\nFile size                                : 485 MiB\nDuration                                 : 1h 41mn\nOverall bit rate                         : 670 Kbps\nMovie name                               : Rio 2 2014 Blu-Ray 480p x264 Quad Audio [Hindi-Tamil-Telugu-Eng] YsB TeaM SSX\n\nVideo\nID                                       : 1\nFormat                                   : AVC\nDuration                                 : 1h 41mn\nBit rate                                 : 400 Kbps\nWidth                                    : 848 pixels\nHeight                                   : 352 pixels\nDisplay aspect ratio                     : 2.40:1\nFrame rate mode                          : Constant\nFrame rate                               : 23.976 fps\nStream size                              : 290 MiB (60%)\nTitle                                    : YsB TeaM SSX\n\nAudio\nID                                       : 2\nFormat                                   : AC-3\nDuration                                 : 1h 41mn\nBit rate mode                            : Constant\nBit rate                                 : 64.0 Kbps\nChannel(s)                               : 2 channels\nChannel positions                        : Front: L R\nSampling rate                            : 48.0 KHz\nStream size                              : 46.3 MiB (10%)\nTitle                                    : YsB TeaM SSX\nLanguage                                 : Hindi/ Tamil/ Telugu/ English\n\n\nText\nID                                       : 6\nFormat                                   : PGS\nMuxing mode                              : zlib\nCodec ID                                 : S_HDMV/PGS\nCodec ID/Info                            : The same subtitle format used on BDs/HD-DVDs\nTitle                                    : YsB TeaM SSX\nLanguage                                 : Hindi/ Tamil/ Telugu/ English\n\n\nMenu\n00:00:00.000                             : en:Chapter 1\n00:03:10.816                             : en:Chapter 2\n00:05:14.314                             : en:Chapter 3\n00:08:49.362                             : en:Chapter 4\n00:13:02.240                             : en:Chapter 5\n00:17:36.305                             : en:Chapter 6\n00:19:19.408                             : en:Chapter 7\n00:22:30.349                             : en:Chapter 8\n00:26:48.690                             : en:Chapter 9\n00:29:00.155                             : en:Chapter 10\n00:30:59.691                             : en:Chapter 11\n00:33:46.566                             : en:Chapter 12\n00:36:34.192                             : en:Chapter 13\n00:39:20.233                             : en:Chapter 14\n00:41:32.657                             : en:Chapter 15\n00:45:05.119                             : en:Chapter 16\n00:47:23.090                             : en:Chapter 17\n00:49:58.162                             : en:Chapter 18\n00:52:05.456                             : en:Chapter 19\n00:55:38.919                             : en:Chapter 20\n00:58:10.904                             : en:Chapter 21\n01:02:11.394                             : en:Chapter 22\n01:04:38.083                             : en:Chapter 23\n01:07:03.937                             : en:Chapter 24\n01:09:18.196                             : en:Chapter 25\n01:10:21.342                             : en:Chapter 26\n01:15:17.763                             : en:Chapter 27\n01:17:00.157                             : en:Chapter 28\n01:21:41.855                             : en:Chapter 29\n01:25:24.619                             : en:Chapter 30\n01:29:42.711                             : en:Chapter 31\n01:32:27.959                             : en:Chapter 32\n\n\n &lt;a href=&quot;\nhttp://i.imgur.com/7JcE3SY.jpg&quot; rel=&quot;nofollow&quot; target=&quot;_NEW&quot;&gt;\nhttp://i.imgur.com/7JcE3SY.jpg&lt;/a&gt; &lt;a href=&quot;\nhttp://i.imgur.com/NONqRQQ.jpg&quot; rel=&quot;nofollow&quot; target=&quot;_NEW&quot;&gt;\nhttp://i.imgur.com/NONqRQQ.jpg&lt;/a&gt; &lt;a href=&quot;\nhttp://i.imgur.com/DcxooR9.jpg&quot; rel=&quot;nofollow&quot; target=&quot;_NEW&quot;&gt;\nhttp://i.imgur.com/DcxooR9.jpg&lt;/a&gt;","torrent":{"xt":"urn:btih:c7d8a886c0d9c313254f0068dd6541efed8c3c38","amp;dn":"Rio+2+2014+BRRip+480p+x264+Quad+Audio+%5BHindi-Tamil-Telugu-Eng%5D+Y","amp;tr":["udp%3A%2F%2Ftracker.openbittorrent.com%3A80","udp%3A%2F%2Fopen.demonii.com%3A1337","udp%3A%2F%2Ftracker.coppersurfer.tk%3A6969","udp%3A%2F%2Fexodus.desync.com%3A6969"],"infoHash":"c7d8a886c0d9c313254f0068dd6541efed8c3c38","infoHashBuffer":{"type":"Buffer","data":[199,216,168,134,192,217,195,19,37,79,0,104,221,101,65,239,237,140,60,56]},"announce":[],"urlList":[]}}